# xmcd
#
# Track frame offsets:
# 150
# 21152
# 31659
# 43071
# 53090
# 65936
# 83061
# 92371
# 102498
# 108769
# 120181
# 130841
# 139849
#
# Disc length: 1995 seconds
#
# Revision: 0
# Processed by: cddbd v1.5.1PL2 Copyright (c) Steve Scherf et al.
# Submitted via: Audion 3.0.2 (http://www.panic.com/audion/)
#
DISCID=a207c90d
DTITLE=Mikis Theodorakis - Zorba the greek
DYEAR=1900
DGENRE=
TTITLE0=Zorba The Greek
TTITLE1=Full Catastrophe
TTITLE2=Life Goes On
TTITLE3=One Unforgiveable Sin
TTITLE4=Questions Without Answers
TTITLE5=Zorba
TTITLE6=Zorba's Dance
TTITLE7=Fire Inside
TTITLE8=Clever People And Grocers
TTITLE9=Always Look For Trouble
TTITLE10=Free
TTITLE11=That's Me Zorba
TTITLE12=Third man theme
EXTD=
EXTT0=
EXTT1=
EXTT2=
EXTT3=
EXTT4=
EXTT5=
EXTT6=
EXTT7=
EXTT8=
EXTT9=
EXTT10=
EXTT11=
EXTT12=
PLAYORDER=
